<?xml version="1.0" encoding="utf-8"?>
<!-- Generator: Adobe Illustrator 25.3.1, SVG Export Plug-In . SVG Version: 6.00 Build 0)  -->
<svg version="1.1" id="图层_1" xmlns="http://www.w3.org/2000/svg" xmlns:xlink="http://www.w3.org/1999/xlink" x="0px" y="0px"
	 viewBox="0 0 1280 1024" style="enable-background:new 0 0 1280 1024;" xml:space="preserve">
<style type="text/css">
	.st0{fill:#FFFFFF;}
</style>
<g id="logo-logo" transform="matrix(1.9211538461538462 0 0 1.9211538461538462 640 510.20073066864694)">
	<g>
		<g transform="matrix(0.2413410218837826 0 0 0.2413410218837826 0 0)">
			<path class="st0" d="M96.1-590c30.2,5.1,60.2,12.2,89.2,22c1.5,0.5,3,1,4.5,1.5c31.2,10.2,61.9,23.6,90.8,39.1
				c28.4,15.3,55.6,33.3,81.2,52.9l1,0.7c11.7,8.9,22.9,18.3,33.8,28.2c1.7,1.5,3.3,3,5,4.4c11.6,10,23.3,20.5,33.2,32.2
				c2,2.4,4.1,4.6,6.2,6.9l0.9,0.9l1.8,1.9c5.6,6,11,12,16,18.4c1,1.2,2,2.4,3,3.7c2.4,2.8,4.7,5.7,7,8.6l0.8,1
				c18.8,23.4,35.6,48.8,50.2,75l0.8,1.5c17.3,31.1,31.9,63.3,43.6,97c4.4,12.7,8.1,25.5,11.5,38.5l0.5,1.9
				c9.2,35.1,15.1,70.6,18.2,106.8c2.8,34.6,2.3,69.8-1,104.4c-3.2,33.7-8.7,67.6-17.7,100.3c-7.5,27.1-16.6,53.8-28,79.6l-0.7,1.5
				c-12.8,28.9-27.2,56.8-44.5,83.3c-0.8,1.3-1.6,2.5-2.5,3.8c-8.3,12.8-17.1,25.3-26.3,37.4l-0.8,1c-8.8,11.5-18.1,22.6-27.9,33.3
				c-1.8,1.9-3.5,3.9-5.2,5.8c-6.3,7.2-13,13.9-19.8,20.6c-1.6,1.6-3.2,3.2-4.8,4.8c-12.3,12.3-12.3,12.3-18.7,17.7
				c-1.5,1.3-3,2.6-4.4,3.9c-8,7-16.1,13.7-24.5,20.2c-0.9,0.7-1.8,1.4-2.8,2.1c-23.5,18-48.1,34.4-73.9,48.9
				c-1.3,0.7-2.6,1.5-3.9,2.2c-29.8,16.8-60.9,30.4-93.1,41.8c-30.9,10.8-63.1,18.9-95.4,24.2c-32.6,5.3-64.9,8-97.8,7.6
				c-2.4,0-4.7-0.1-7.1-0.1c-1.4-0.9-2.8-1.8-4.2-2.8l-1.2-0.8c-2.3-1.5-4.6-3.2-6.6-5.1c-1.8-1.7-3.4-3.5-4.9-5.4
				c-1.4-1.9-2.6-3.9-3.8-5.9l-0.5-0.9c-3.8-6.3-7.1-12.8-10.2-19.4l-0.9-1.9c-5.1-10.7-10-21.5-14.9-32.3
				c-5.5-12.2-11.3-24.3-17.2-36.4c-1.5-3.1-3-6.1-4.5-9.2l-0.7-1.4c-0.6-1.2-1.2-2.5-1.7-3.7c-0.2-0.3-0.3-0.7-0.5-1
				c-0.4-1-0.4-1-1.1-2.8c-0.1-1.4-0.1-2.6,0-4l-2,1l0.4,1.8c2.7,13.2,5.3,26.4,7.6,39.7c0.2,1.1,0.4,2.1,0.6,3.2
				c2.3,12.6,4.5,25.4,4.8,38.3l0,1.9l0,1c0,3.1-0.2,6.1-0.7,9.1c-0.6,2.8-1.4,5.6-2.4,8.3c-1.1,2.7-2.4,5.2-3.9,7.7
				c-1.3,1.9-2.8,3.6-4.4,5.3c-2.1,2.1-4.4,4.1-6.6,6.1c-1.1,0.7-2.3,1.4-3.6,1.9c-1.3,0.5-1.3,0.5-2.7,0.9c-1.4,0.1-2.7,0.1-4.2,0
				l-1.5-0.2l-1.7-0.2c-7.4-0.8-14.7-2.3-21.9-3.9c-1.2-0.3-2.5-0.5-3.7-0.8c-33.1-7.1-65.6-16.7-97-29.4
				c-32.3-13.2-63.5-28.6-93-47.2c-7.4-4.7-14.7-9.5-22-14.5l-1.1-0.7c-15.1-10.4-29.8-21.4-43.9-33.3l-1.6-1.3
				c-6-5-11.9-10-17.7-15.3c-2-1.8-3.9-3.6-5.9-5.3c-6.8-6-13.3-12.4-19.7-18.9c-1.5-1.5-3-3-4.5-4.5c-5.8-5.8-11.6-11.6-16.9-17.9
				c-1-1.1-1.9-2.3-2.9-3.4c-6.7-7.6-13.1-15.5-19.3-23.5c-1-1.3-2.1-2.7-3.1-4c-17.9-22.9-34.3-47.5-48.4-73l-0.9-1.6
				c-17.3-31.1-31.8-63.3-43.5-96.9c-11.9-34.4-19.9-69.7-25.6-105.6c-2.4-14.9-3.9-29.8-5-44.8c-0.1-1.4-0.2-2.9-0.3-4.3
				c-0.6-8-0.9-15.9-1-23.9l0-3.6c0-3.8,0-7.7,0-11.5l0-2c0-21.8,0.7-43.3,3.3-64.9l0.5-3.9c1-8.7,2.2-17.4,3.5-26.1l0.3-1.7
				c5-32.2,13-63.4,23.4-94.3l0.9-2.8c10-29.9,22.9-59.3,38-87c3.1-5.7,6.3-11.3,9.6-16.8c0.8-1.3,1.6-2.7,2.3-4
				c18.3-31.3,40-60.1,63.4-87.7c4-4.7,8.2-9.3,12.4-13.9c1.6-1.7,3.1-3.4,4.6-5.1c5.3-6,10.9-11.7,16.5-17.4l1.2-1.2
				c5-5,10-9.8,15.3-14.3c1.7-1.4,3.3-3,4.9-4.5c5.3-4.9,10.8-9.5,16.4-14c1.7-1.4,3.5-2.8,5.2-4.3c23.9-19.8,50.1-37.6,77.1-53
				c1.3-0.7,2.6-1.5,4-2.2c1.4-0.8,2.7-1.5,4.1-2.3c28.5-16.2,58.5-29.6,89.4-40.6c18.4-6.5,36.9-12.2,55.8-16.9
				c0.6-0.1,1.2-0.3,1.7-0.4c30.8-7.6,62.1-12.7,93.7-15.4c1.5-0.1,3-0.3,4.5-0.4C-1.1-599.6,43.9-597.8,96.1-590 M-106.6-542.5
				c-32,6.5-63.4,15.1-93.8,26.9c-27.1,10.7-53.8,23-78.7,38.1l-1.5,0.9c-11.6,7-23.1,14.2-34,22.2c-2.2,1.6-4.4,3.1-6.6,4.7
				c-9.4,6.5-18.4,13.4-27.2,20.7c-1.6,1.3-3.2,2.7-4.9,4c-5.2,4.2-10.3,8.6-15.3,13.1c-1.6,1.4-3.2,2.9-4.8,4.3
				c-6.7,5.9-13,12.1-19.3,18.4c-1.4,1.4-2.9,2.9-4.3,4.3c-5.7,5.7-11.3,11.3-16.5,17.5c-1,1.1-1.9,2.3-2.9,3.4
				c-6.7,7.6-13.1,15.5-19.3,23.5c-1,1.4-2.1,2.7-3.1,4.1c-19.6,25.2-37.2,52.6-52.2,80.9c-14.6,27.6-26.7,56.5-36.3,86.2
				c-7.5,23.6-13.5,47.9-17.6,72.3c-0.3,1.6-0.5,3.2-0.8,4.7c-4,23.4-6,47.1-7.1,70.8l-0.1,1.2c-0.7,15.8-0.3,31.7,0.5,47.5
				c0,0.4,0,0.9,0.1,1.3c0.9,17.8,2.6,35.4,5.2,53.1l0.3,1.9c4.9,32.4,12.5,63.8,23,94.9c10.2,30.4,23.4,59.8,38.7,88
				c4.2,7.5,8.6,14.9,13,22.3l1.6,2.6c10.8,17.6,22.7,34.2,35.4,50.4c8.8,11.3,18,22.2,27.8,32.6c1.5,1.7,3.1,3.3,4.6,5
				c8.8,9.7,18.1,18.7,27.7,27.5c1.1,1,2.2,2.1,3.3,3.1c5.8,5.4,11.8,10.5,18,15.5c1.7,1.4,3.5,2.8,5.2,4.3
				c22.9,19,47.9,36,73.8,50.8c11.3,6.4,22.9,12.4,34.6,18.2l1.3,0.7c20,10.1,40.9,18.3,62.2,25.3l1.1,0.4
				c6.8,2.3,13.7,4.5,20.6,6.5l1.3,0.4c1.2,0.3,2.3,0.6,3.6,0.8c1.7,0.1,3.3,0.1,5,0c2.1-1.8,4.1-3.7,6-5.7c1.5-1.9,2.7-3.9,3.9-5.9
				c1.7-3.1,3.3-6.3,4.6-9.6c0.5-1.5,0.9-3,1.1-4.5c0.2-1.1,0.3-2.1,0.4-3.2l0.1-1c0.2-2,0.3-3.9,0.2-5.9
				c-0.6-6.9-2.1-13.7-3.9-20.5c-2.9-10.6-6.4-21.1-9.8-31.5c-0.7-2-1.3-4.1-2-6.1c-3.3-10.3-6.6-20.5-10-30.8
				c-2.5-7.6-4.9-15.2-7.3-22.8c-0.4-1.3-0.8-2.5-1.2-3.8c-1.3-4.1-2.5-8.2-3.1-12.5c-0.7-6.4-0.8-12.9-0.4-19.3
				c0.2-2.6,0.5-5.1,1-7.7c0.8-3.2,2-6.1,3.3-9.1l0.6-1.5c1.5-3.7,3.3-7.1,5.4-10.5c4.8-7.2,10.5-13.7,16.3-20c2.8-3,5.4-6.1,8-9.3
				c3.5-4.4,7.3-8.6,11.2-12.7c4.2-4.4,8.2-8.9,12-13.7c3.4-4.2,7-8.4,10.5-12.5l0.9-1c1.7-1.9,3.4-3.9,5-5.8c0.4-2,0.8-4,1-6
				c0-1,0-1-0.3-2.8c-0.5-1.8-1.1-3.6-1.7-5.3l-0.3-1c-1.9-5.2-4-10.3-6.6-15.2c-1.5-2.5-3.1-4.9-5-7.1c-2.6-3.1-5.4-6-8.3-8.8
				c-0.8-0.8-1.6-1.6-2.4-2.4c-4.1-4.3-8.5-7.9-13.2-11.5l-2.2-1.7c-7.8-5.9-15.9-11.6-23.9-17.2h-2v-2h2l14-19l4,1
				c1.3,0.6,1.3,0.6,2.4,1.4l1.3,0.9l1.4,0.9l1.5,1c1.6,1,3.1,2.1,4.7,3.2l3.3,2.2c8.6,5.8,17.2,11.7,25.7,17.9
				c0.9,0.6,1.7,1.3,2.6,1.9c7.2,5.2,13.9,10.7,20.3,16.8l1.1,1.1c3,2.8,6,5.7,8.5,9c1.2,1.6,2.3,3.3,3.4,4.9l4-1
				c5.8-6.6,11.4-13.3,16.6-20.5l0.6-0.9c1.3-1.8,2.6-3.7,3.8-5.6c0.8-1.6,1.4-3.3,2-5h3l0.3,0.8c1,2.7,2.2,5.3,3.5,7.8l0.5,1
				c0.7,1.4,1.4,2.7,2.1,4.1c1.9,3.5,3.5,7.1,4.8,10.8c0.8,2.6,1.5,5.2,1.9,7.9c0.5,3.5,0.7,7.1,1,10.7c0.1,1.1,0.2,2.1,0.2,3.2
				c0.2,2.6,0.4,5.1,0.6,7.7h2c0.7-2,1.4-3.9,2-5.9c0.2-0.7,0.5-1.3,0.7-2c1.7-4.8,3-9.5,3.9-14.5c0.7-4.6,0.8-9.3,0.8-14v-1.5
				c0-8.4,0-8.4-0.7-12.3c-0.6-2.8-1.4-5.5-2.5-8.1c-0.4-0.9-0.8-1.8-1.2-2.7l-0.5-1.3c-1.2-3-2.7-5.9-4.5-8.7
				c-3.7-5.7-7.9-11-12.5-16c-7.1-7.3-15.4-13.2-23.6-19.2c-0.9-0.6-1.7-1.3-2.6-1.9c-1.2-0.9-2.4-1.8-3.6-2.6
				c-4.1-3-8.2-5.9-12.3-8.9c-2.6-1.9-5.2-3.7-7.7-5.6c-13-9.4-26.1-18.6-39.3-27.8l-5.9-4.1l-1.5-1c-6.8-4.7-13.5-9.5-20.2-14.3
				c-8-5.8-16-11.4-24.1-17.1c-4.4-3.1-8.8-6.2-13.2-9.3c-4.1-2.9-8.2-5.8-12.3-8.7l-3.8-2.6l-2.6-1.8c-4.4-3.1-8.8-6.2-13.2-9.4
				l-1.1-0.8c-2.9-2.1-2.9-2.1-4.3-3.2c-4.7-3.5-9.6-6.8-14.5-10l-1.6-1.1c-2.7-1.8-5.3-3.5-8-5.3c-8.1-5.3-8.1-5.3-11-7.9
				c-1.1-1.2-1.1-1.2-2-2.6c-1.5-2.8-2.6-5.7-3.7-8.7c-0.3-0.9-0.7-1.8-1-2.7c-0.7-1.9-1.5-3.8-2.2-5.7c-1.1-2.9-2.2-5.7-3.3-8.6
				c-1.2-3.1-2.4-6.2-3.6-9.2c-3.9-10.1-7.8-20.1-11.7-30.1l-1.6-4c-3.3-8.5-6.7-17.1-10.1-25.6l-1.6-4l-0.4-1
				c-0.9-2.4-1.9-4.7-2.8-7.1l-1.2-3.1l-0.6-1.4c-0.5-1.3-0.9-2.6-1.4-3.9l-1-6l8-13v-2l2,1l0.6,1.2c5.3,10.7,10.7,21.3,16.2,31.9
				l0.6,1.1c6,11.6,12,23.2,18.4,34.6c1.5,2.8,3.1,5.6,4.6,8.4c1.3,2.4,2.6,4.8,3.9,7.2c0.8,1.5,1.6,2.9,2.4,4.4
				c3.3,6.2,6.9,12.1,11,17.7l1.1,1.5c1.4,1.9,2.9,3.6,4.6,5.3c6.2,5.3,13.2,9.4,20.2,13.5c1.3,0.8,2.6,1.5,3.9,2.3
				c5.3,3.2,10.6,6.4,15.8,9.8c6.9,4.4,13.8,8.7,20.8,12.9c8.3,5,16.5,10.1,24.8,15.1l1.6,1c4.9,3,9.9,6.1,14.8,9.1
				c3.2,2,6.4,4,9.6,5.9l1.6,1c6.5,4,12.9,7.9,19.4,11.9c2.7,1.6,5.3,3.2,8,4.8c6.4,3.9,12.8,7.8,19.1,11.7l1.7,1.1
				c2.6,1.7,5.3,3.3,7.9,5l2.8,1.8c0.4,0.3,0.8,0.5,1.3,0.8c1.1,0.7,2.2,1.4,3.4,2c1.3,0.4,2.6,0.7,4,1c-2.4-8.1-5.8-15.8-9.1-23.5
				c-1.8-4.2-3.6-8.4-5.3-12.6l-0.6-1.3c-4-9.6-8-19.2-12-28.9c-0.7-1.8-1.4-3.5-2.1-5.2c-3.9-9.4-7.5-18.9-10.7-28.5l-0.4-1.3
				c-2.3-6.9-4.4-13.9-5.7-21.1c-1.6-10.5-1.3-21.1-1.3-31.6l0-1.4c0-10.1,0.2-20.2,1.2-30.2c0.3-3.6,0.5-7.1,0.3-10.6
				c-0.5-5-1.7-9.8-3-14.6c-3.2-11.2-7.3-22.1-11.2-33l-0.7-2c-2.3-6.3-4.5-12.7-6.8-19c-3.3-9.2-6.6-18.4-9.9-27.6l-0.6-1.7
				l-2.4-6.7c-8.2-22.9-16.4-45.8-24.8-68.6c-1.6-4.5-3.3-9-4.9-13.6l-1.7-4.6l-1.1-3l-1.5-4.1l-0.4-1.2l-0.8-2.1
				c-0.4-1-0.9-2-1.4-2.9l18,4c6.3,11.3,12.4,22.7,18.1,34.3c3.1,6.3,6.3,12.5,9.7,18.6c4.6,8.2,9,16.6,13.2,25l0.8,1.5
				c2.3,4.5,4.6,9,6.8,13.5c6.4,12.7,13,25.1,20.3,37.2h2c3.2-11.1,6.1-22.2,9-33.3l0.3-1.1c0.9-3.6,1.9-7.3,2.8-10.9
				c2.1-8.2,4.2-16.3,6.3-24.5l0.3-1.2c3.7-14.4,7.5-28.9,11.3-43.3l1.2-4.5c3.1-11.8,6.4-23.5,9.9-35.2c6.3-4.3,12.8-8.3,19.4-12.2
				l4-2.4c0.8-0.5,1.6-1,2.5-1.5c0.4-0.2,0.7-0.4,1.1-0.7c0.3-0.2,0.6-0.4,1-0.6c1.4-0.9,2.7-1.8,4.1-2.7l-0.2,0.9
				c-2.1,8.9-4,17.8-5.9,26.7l-0.7,3.3c-1.2,5.7-2.4,11.4-3.6,17.1l-0.3,1.3c-8.6,41.3-16.9,82.6-25.7,133.5l-0.5,2.9
				c-1.1,6.4-2.2,12.8-3.1,19.3l-0.2,1.4c-2,13.2-3.3,26.2-3.2,39.5c0,2.1,0,4.2,0,6.3c-0.1,7.7,0.1,15.3,1.4,22.9
				c1.6,8.9,3.9,17.5,7,26l0.4,1.1c5.3,14.6,12.2,28.2,19.6,41.9h4l1-0.8c8.5-7,17.3-13.4,26.9-18.9c26.7-15,55.2-26.8,83.4-38.6
				l1.3-0.5c4.1-1.7,8.1-3.4,12.2-5.1c7.5-3.1,14.9-6.2,22.2-9.6c0.7-0.3,1.4-0.7,2.2-1c3.4-1.5,6.6-3.2,9.7-5.2
				c4-2.8,7.8-5.9,11.3-9.3c2.2-2.3,4.1-4.7,5.8-7.3c3.1-4.9,5.6-10.2,8-15.5c1.7-4.2,3-8.6,4.3-13c0.3-1,0.6-1.9,0.9-2.9
				c7.4-24.2,14.3-48.6,21.3-72.9c1-3.4,1.9-6.8,2.9-10.1c0.6-2,1.2-4,1.7-5.9c0.3-0.9,0.5-1.8,0.8-2.7c0.4-1.2,0.7-2.4,1.1-3.6
				l0.3-1.1c0.3-0.9,0.5-1.8,0.7-2.8c0.1-1.7,0.1-1.7,0-3l3,1c5.3,8,10.7,16,16,24c-0.6,7.5-2.2,14.7-3.8,22l-0.9,3.8
				c-0.6,2.7-1.2,5.4-1.8,8.1c-0.9,3.8-1.8,7.7-2.6,11.5c-2.6,11.3-5.1,22.6-7.7,33.9c-0.9,3.8-1.7,7.6-2.6,11.4
				c-0.6,2.5-1.1,5-1.7,7.5c-0.4,1.5-0.7,3.1-1,4.6c-0.2,0.7-0.3,1.4-0.5,2.1c-0.2,0.9-0.4,1.9-0.6,2.8l-0.4,1.5
				c-0.4,2.6-0.3,5.2-0.2,7.8c9.1,2.3,18.2,3.9,27.4,5.3l4.1,0.6c3.2,0.5,6.5,1,9.7,1.5c2.6,0.4,5.2,0.8,7.8,1.2
				c22,3.3,43.9,6.5,66,9.5l1,2c-5.9,0.6-11.7,1.2-17.6,1.8l-1.4,0.1c-12.7,1.3-25.5,2.4-38.2,3.4c-23.7,1.7-47.6,3.7-70.6,9.6
				c-12.8,3.3-25.3,7.6-37.3,13.1c-4,1.8-8,3.7-12,5.7c-2.7,1.3-5.5,2.6-8.3,3.9c-11.5,5.3-22.6,11.2-33.7,17.3
				c-2.8,1.6-5.7,3.1-8.6,4.7c-13,7-25.8,14.7-37.4,23.8c-3.4,2.8-6.7,5.7-10,8.7l-1.1,1c-2.9,2.6-5.6,5.4-8.1,8.5
				C25.4,7.6,21.4,13.4,18,19.5l-0.8,1.5l-0.8,1.4c-0.6,1.3-1.2,2.7-1.6,4.1c-0.3,1.3-0.3,1.3-0.5,2.7l0.1,1.5
				c0.4,1.8,0.4,1.8,0.8,2.9c1.4,3.3,3.1,6.4,4.8,9.5l1.6,3C27.2,56.4,33,66.5,38.9,76.6l4-1l0.4-0.8c3.7-7.3,8-14.1,12.9-20.7
				c5.7-7.6,11.8-15,18.8-21.6c5.9-5.5,12.3-10.4,19.1-14.8c6.5-4.1,13.1-7.7,20.2-10.7c39-16.1,81.7-24.5,151.6-41.3
				c1.6-0.4,3.3-0.8,4.9-1.1c1.1-0.3,2.2-0.5,3.3-0.8l1.9-0.5l1.7-0.4c1.4-0.4,1.4-0.4,2.6-0.9l0.8-0.5c-4.4,11.8-9.2,23.4-14,35
				L265.4-3c-5.2,1.6-10.5,3.2-15.7,4.8c-3.4,1-6.9,2.1-10.3,3.1c-60.5,18.3-60.5,18.3-82.5,29.1c-1,0.5-2.1,1-3.1,1.5
				c-6.3,3-12.3,6.4-18,10.5c-8.8,6.4-17.1,13.5-24.7,21.3c-4.9,5.1-9.4,10.5-13.4,16.3c-4.9,7.2-9,14.8-12.6,22.8
				c-3.2,7.4-6,14.8-8.3,22.6l-0.3,1c-0.8,2.6-1.4,5.3-1.9,8c-0.1,1.4-0.1,1.4-0.1,2.9c0.2,1.4,0.6,2.5,1,3.9c1,2.6,2,5.1,3.1,7.6
				c2.2,5.1,4.3,10.2,5.9,15.6c0.1,0.4,0.2,0.8,0.4,1.2c0.7,2.4,1.2,4.8,1.5,7.4c0.2,2,0.3,4.1,0.4,6.1l0.1,1.1
				c0.2,3.6,0,7.1-0.3,10.7c-0.5,3.6-1.1,7.2-2.2,10.7c-1,3.1-2.3,6.1-3.7,9c-4.7,8.7-11.2,16.4-17.3,24.1l-2.1,2.7
				c-2.3,2.9-4.7,5.9-7,8.8l-0.7,0.9c-4.7,6-9.3,12-14,18l-2.5,3.3c-8.7,11.3-17.3,22.7-25.7,34.2c-1.7,2.3-3.4,4.7-5.1,7
				c-7,9.5-13.9,19-19.4,29.5c-1.9,3.9-3.8,7.8-5,12c-0.4,2-0.7,4-1,6c-1.3-1-1.3-1-2.1-1.9l-0.9-1.1c-1-2.1-1.9-4.3-2.7-6.6
				c-0.4-1-0.8-2.1-1.2-3.1c-1.6-4.2-2.9-8.5-3.8-13c-0.7-3.9-0.7-7.8-0.7-11.7l0-1.4l0-1.4c0-4.4,0-8.9,0.8-13.2
				c0.4-2.2,0.9-4.3,1.5-6.4c0.4-1.4,0.8-2.8,1-4.2c-0.1-1.2-0.1-1.2-0.4-2.4c-0.2-0.5-0.4-1.1-0.6-1.6c-4,4.9-7.9,9.9-11.1,15.5
				c-2.1,3.9-4,8-5.5,12.2c-1,3.2-1.7,6.4-2.2,9.7c-0.5,4.3-0.7,8.5-0.5,12.8c0.3,4,0.9,7.9,1.8,11.8c1.3,5,3.1,9.9,5.2,14.6
				c2.4,5.4,5.2,10.5,8.4,15.4c1.7,2.4,3.5,4.9,5.2,7.2c2.1,2.9,4.2,5.7,6.3,8.6c0.3,0.4,0.5,0.7,0.8,1.1c7,9.6,13.6,19.6,20.1,29.6
				l2.9,4.3l0.7,1.1c4.5,6.8,9.1,13.5,13.7,20.3c4.2,6.1,8.3,12.3,12.4,18.4l1.1,1.6c1.7,2.5,3.4,5.1,5.1,7.7
				c3.4,5.1,6.9,10.1,10.5,15c3.5,4.8,6.8,9.7,10.2,14.7c7.4,11,15,21.8,22.9,32.5c10.2-0.4,20-1.7,30-3.8c1.1-0.2,2.2-0.5,3.3-0.7
				c30-6.3,59.6-14.7,88.1-26.1c16.6-6.7,32.7-14.4,48.7-22.4l1.5-0.8c28.2-14.2,55-31.4,80.4-50.2c6.6-4.9,12.9-10.1,19.2-15.3
				c0.9-0.7,1.8-1.5,2.7-2.2c6.2-5.2,12.3-10.4,18.3-15.9c1.9-1.7,3.7-3.4,5.6-5c5.9-5,11.3-10.4,16.8-15.9c1.3-1.3,2.7-2.7,4-4
				c5.5-5.4,10.8-10.9,15.8-16.8c1-1.1,2-2.3,2.9-3.4c21-24,39.5-50.2,56.1-77.5c1.6-2.7,3.2-5.3,4.7-8c0.3-0.4,0.5-0.9,0.8-1.3
				c15.4-26.4,28.6-53.9,39.2-82.7c11.6-31.8,20.7-64.4,26.6-97.8c4.5-25.4,7-50.9,8-76.7l0.1-1.5c0.6-15.9,0.4-31.7-0.4-47.5
				l-0.1-1.3c-1.6-31.7-6-63.2-13-94.2c-7-30.5-16.3-60.7-28.5-89.5c-9.7-22.9-20.7-45.3-33.7-66.5c-0.2-0.4-0.5-0.8-0.7-1.2
				c-6.8-11.2-14-22.1-21.5-32.8c-0.8-1.1-1.5-2.1-2.3-3.2c-7.1-10-14.4-19.7-22.3-29.2c-1.6-1.9-3.1-3.8-4.6-5.6
				c-4.5-5.6-9.2-11-14.2-16.2l-1.4-1.5l-0.7-0.8c-1.3-1.4-2.5-2.8-3.8-4.2c-5-5.9-10.4-11.3-15.8-16.7c-1.3-1.3-2.7-2.7-4-4
				c-5.4-5.5-10.9-10.8-16.8-15.8c-1.5-1.3-3-2.6-4.5-3.9c-8-7-16.1-13.7-24.5-20.2c-0.9-0.7-1.9-1.4-2.8-2.2
				c-8.9-6.8-17.9-13.3-27.2-19.6c-1.9-1.3-3.7-2.5-5.5-3.8c-19.6-13.5-40.6-24.7-61.8-35.4c-1.4-0.7-2.8-1.4-4.2-2.1
				c-16.6-8.4-33.9-15.1-51.3-21.6l-1-0.4c-27.7-10.3-56.8-17.8-85.9-23.2c-7-1.3-14.1-2.4-21.2-3.5l-1.7-0.3
				c-7.7-1.1-15.5-2-23.3-2.7c-0.6,0-1.1-0.1-1.7-0.2C10.8-554.4-31.3-553.5-106.6-542.5"/>
		</g>
		<g transform="matrix(0.2413410218837826 0 0 0.2413410218837826 99.40294643291085 -3.1178474076891867)">
			<path class="st0" d="M7.8-79.2c5.4,0.6,10.8,1.6,16.2,2.7l1.3,0.3c14.8,3.1,29.1,8,43.2,13.6c18.2,7.3,35.7,16.1,52.5,26.1
				c0,1.4-0.2,2.7-0.5,4.1c-0.5,1.9-0.5,1.9-1,2.9c-1.4,2.7-3.1,5.3-4.8,7.8c-0.3,0.4-0.5,0.8-0.8,1.2c-5.6,8.7-11.8,17-18.2,25
				c-0.7,0.8-1.3,1.7-2,2.5C84,19.4,73.3,31.2,61.6,41.7c-3.1,2.7-6.4,5.3-9.6,7.8l-1.7,1.3c-7.7,5.9-15.5,11.5-24.1,16.1
				c-6.7,3.5-13.7,6.2-20.9,8.5c-1.1,0.4-2.3,0.7-3.4,1.1l-1,0.3c-3.8,1.2-7.8,2-11.8,2.5c-9.1,0.9-18.4,0.8-27.4,0.1
				c-4.3-0.4-8.5-1.2-12.7-2.3c-9.4-2.6-18.6-5.8-27.4-10c-6.4-3.1-12.6-6.6-18.7-10.3l-0.9-0.5c-4.5-2.7-8.8-5.7-13-8.8v-2
				c9.2-3.7,18.4-6.9,27.8-9.9c4-1.3,7.9-2.6,11.9-4l1.2-0.4C-37.3,20.3-4.5,8.2,26-8.3c1.3-0.7,2.7-1.5,4-2.2l1-2
				C13.2-11.2-4.5-9.6-22.2-7.5l-1.2,0.1C-36.7-5.7-50-3.8-63.2-2l-1.2,0.2C-73-0.6-81.5,0.6-90,1.8c-2.7,0.4-5.4,0.8-8.1,1.2
				c-2.2,0.3-4.3,0.6-6.5,0.9c-1,0.1-2,0.3-3,0.4c-1.2,0.2-2.4,0.4-3.7,0.5c-3.2,0.5-6.4,0.7-9.7,0.6c0.2-1.7,0.6-3.4,1-5
				c1-2.5,2.2-5,3.4-7.4l0.5-1c3.8-7.6,8.3-14.8,13.4-21.7C-99-34.5-95.1-39-91-43.5l1.1-1.2c4-4.4,8.4-8.2,13.1-11.8
				c5.5-4.2,11.3-8,17.4-11.3c4.7-2.4,9.6-4.5,14.6-6.2c3.5-1.1,7.1-2,10.6-2.8l1.1-0.3C-19.8-80.1-5.8-80.5,7.8-79.2"/>
		</g>
		<g transform="matrix(0.2413410218837826 0 0 0.2413410218837826 24.703413750388606 -93.98037945592877)">
			<path class="st0" d="M82.5-97c2.1,14,2.4,27.8,2.4,41.9l0,1.7c0,27.9,0,27.9-2.3,41.4C82-8.7,81.3-5.4,80.5-2l-0.3,1.4
				c-2.5,10.4-5.7,20.7-9.9,30.5c-2.8,6.4-6.1,12.5-10,18.4c-3.4,5-7.1,9.8-11.3,14.1c-3.9,3.9-8.2,7.4-12.7,10.6
				c-6,4.1-12.2,7.9-18.8,10.9c-8.2,3.7-16.8,6.6-25.6,8.8c-8.7,2.1-17.5,3.5-26.4,4.2c-3.3,0.2-6.7,0.1-10,0
				c0.8-2.2,1.6-4.3,2.7-6.3c0.8-1.3,1.6-2.6,2.5-3.9l0.9-1.5c1-1.6,2-3.2,3.1-4.8l1.6-2.5c3.6-5.7,7.3-11.3,11-17
				c9-13.8,17.8-27.7,26.3-41.8c0.8-1.3,1.5-2.5,2.3-3.8c5.6-9.1,10.6-18.5,15.6-27.9l0.9-1.7c0.8-1.6,1.6-3.2,2.5-4.7l0.8-1.4
				c0.8-1.7,1.7-3.3,2.2-5c0.2-0.9,0.4-1.9,0.6-2.8C22.1-23,15.9-17.8,10-12.3c-1,0.9-2,1.7-3,2.6C0.2-4-5.9,2.3-12.2,8.5
				c-1.6,1.6-3.3,3.3-4.9,4.9c-2.8,2.7-5.5,5.5-8.2,8.2c-3.2,3.2-6.3,6.3-9.5,9.5c-2.7,2.7-5.5,5.5-8.2,8.2
				c-1.6,1.6-3.2,3.2-4.9,4.9c-12.3,12.3-12.3,12.3-17.3,18.2c-1.8,2.1-3.6,3.9-5.6,5.8c-3.3,3.2-3.3,3.2-4.4,4.6
				c-0.5,0.7-0.9,1.4-1.3,2.1h-3c-0.6-2.4-1.1-4.8-1.7-7.2c-0.2-0.8-0.4-1.6-0.6-2.4c-1.3-5.8-2.4-11.5-2.8-17.4
				C-85,37.4-85.2,26.4-84,15.8c0.9-7.1,2.7-14,4.8-20.8c1.8-5.6,4.1-11.1,6.8-16.3c2.7-5,5.7-9.7,9.2-14.1
				c4.4-5.4,9.2-10.5,14.4-15.1c6.6-5.6,13.7-10.4,21.1-14.8c9-5.3,18.4-10,28.2-13.7C18.2-85.6,36.4-90.8,55-94.3
				c2.1-0.4,4.3-0.8,6.4-1.1l1.5-0.3C69.4-96.8,75.9-97.2,82.5-97"/>
		</g>
		<g transform="matrix(0.2413410218837826 0 0 0.2413410218837826 15.17441639726735 -45.58856259082339)">
			<path class="st0" d="M81-95.5c0.4,1,0.7,2,1,3c0.2,1.4,0.4,2.7,0.5,4.1l0.1,1.3c1.8,18.2,2.4,36.9,1.1,55.2
				c-1.1,14.1-3.6,28.2-7.1,41.9c-1.7,6.4-4,12.5-6.7,18.6l-0.8,1.8c-2.6,5.8-5.5,11.3-9,16.6c-3.6,5.3-7.6,10.2-12,14.8
				c-4,4.1-8.2,8.1-12.9,11.5c-1.7,1.1-3.5,2.2-5.2,3.2L29.1,77c-6.3,3.7-12.7,7.2-19.6,9.9c-8,3-16.2,5.2-24.5,6.8
				c-1.7,0.3-3.4,0.6-5,0.8l-1.2,0.2c-6.7,1.1-13.5,0.9-20.3,0.8c-1.5,0-3,0-4.5,0c1.1-2.3,2.2-4.4,3.7-6.5l0.6-0.9l1.4-1.9l0.7-1
				c1.4-1.9,2.7-3.8,4.1-5.7l0.9-1.2c9.6-13.5,18.7-27.3,27.8-41.1c0.7-1,1.3-2,2-3.1C3.6,21.3,11.6,8.5,18.6-5
				c0.7-1.4,1.5-2.8,2.2-4.3c3.1-5.9,5.8-12.1,8.2-18.3c-7.7,4.8-7.7,4.8-11.1,7.8c-2,1.8-4,3.7-5.9,5.6c-1,1-2,1.9-3,2.9
				c-0.6,0.6-1.2,1.2-1.8,1.8C5.6-8,4-6.5,2.3-5.1C-2.6-0.9-7.2,3.5-11.7,8l-2.2,2.2c-2,2-3.9,3.9-5.9,5.9
				C-25.7,22-31.6,28-37.5,33.9c-4.4,4.4-8.8,8.8-13.2,13.3c-9.1,9.1-18.1,18.2-27.2,27.3l-2-1c-1.9-7.9-3.6-15.9-4.1-24
				c-0.2-4.6-0.3-9.2-0.3-13.8c0-1,0-2.1,0-3.1c0-6.2,0.1-12.3,1.1-18.4c1.2-7.3,2.9-14.4,5.3-21.4c2.3-6.1,5-11.9,8.4-17.6
				c3.7-6,8.1-11.5,12.8-16.8l1.1-1.3c3.6-4,7.5-7.5,11.7-10.9c5.9-4.6,12.1-8.4,18.6-12c10.2-5.5,20.6-10.9,31.6-14.6
				c19-6.2,38.5-10.7,58.3-13.6C76.6-95.6,76.6-95.6,81-95.5"/>
		</g>
		<g transform="matrix(0.2413410218837826 0 0 0.2413410218837826 82.48727277378299 -48.37962791545873)">
			<path class="st0" d="M92.1-74c0.5,1.6,0.5,1.6,0.8,2.7l0.2,1.3c-0.1,2.1-0.4,4-0.8,6.1l-0.3,1.8c-0.3,1.9-0.6,3.9-1,5.8l-0.3,2
				c-2.5,14.8-6,29.1-11,43.3c-4.2,11.5-9.4,22.7-15.4,33.3c-3.9,6.8-8.6,12.9-13.6,18.9c-0.6,0.7-1.2,1.5-1.8,2.2
				c-2.8,3.5-5.8,6.6-9.1,9.6c-3.8,3.2-7.7,6-12,8.6c-6,3.5-12.1,6.8-18.6,9.3c-3.7,1.3-7.6,2.4-11.4,3.3l-1,0.3
				c-4.8,1.2-9.7,2-14.7,2.4c-3.6,0.2-7.1,0.3-10.7,0.3l-1.3,0c-8.2,0-16.3-0.6-24.3-1.8c-4.4-0.8-8.6-2-12.9-3.3v-3l1.5-1.1
				c10.3-7.8,19.9-16.3,29.4-25.1c2.6-2.5,5.3-4.9,8.1-7.2c7.9-6.9,15.6-14,23-21.5c2.2-2.3,4.5-4.3,7-6.4c4.8-4,8.9-8.7,13-13.3
				c1.6-1.8,3.3-3.6,4.9-5.4l1.4-1.5c0.8-0.9,1.7-1.8,2.6-2.7c1.5-1.7,3-3.3,4.2-5.2c0.7-1.2,1.4-2.4,2.1-3.6
				C11.3-15.9-6.3-6.3-24,4.1c-3.7,2.2-7.4,4.3-11.1,6.5c-12.6,7.3-25.1,14.7-37.5,22.3l-2.8,1.7c-1.7,1-3.4,2.1-5.1,3.1l-1.5,0.9
				c-2.8,1.7-5.4,3.5-8,5.5h-3c-0.3-7.3-0.3-14.6,0.6-21.9c1.2-8.4,2.9-16.7,5.4-24.7c2.4-7.3,5.5-14.3,9.1-21.1
				c2-3.7,4.3-7.2,6.9-10.5c1.6-2,3.3-3.9,4.9-5.8l1-1.2c2.6-3,5.4-5.5,8.4-8c4.7-3.8,9.6-7.2,14.8-10.1c6.8-3.6,13.9-6.9,21.2-9.3
				c8.5-2.8,17.4-4.7,26.2-6C6.8-74.7,8-74.8,9.1-75l1.2-0.2C37.5-78.8,64.9-77.1,92.1-74"/>
		</g>
		<g transform="matrix(0.2413410218837826 0 0 0.2413410218837826 -98.37304501432578 -19.925477363213385)">
			<path class="st0" d="M18.8-65.7c5,0.6,9.8,1.8,14.6,3.2c0.7,0.2,1.3,0.4,2,0.6l1,0.3c4.8,1.5,9.5,3.3,14,5.7
				c5.7,3.2,10.8,7.2,15.9,11.3c3.9,3.3,7.6,6.9,10.9,10.9c6.9,8.3,12.8,17.4,18.2,26.8C96.6-5,97.6-3,98.6-1.1l0.6,1.2l0.5,1.1
				l0.4,0.9l0.3,1c0,1,0,2,0,3c-7.2-1.1-14.3-2.4-21.4-4l-1.3-0.3l-5.3-1.1c-32.8-7-65.5-13-99-15.6l-1,2c0.3,0.1,0.6,0.2,0.9,0.3
				c3.2,1.2,6.2,2.6,9.3,4.2l3.1,1.5l1.7,0.8C20.9,10.4,55.8,24.4,90.5,38.1v4c-6.2,4.7-12.7,8.9-19.7,12.5
				c-5.2,2.6-10.6,4.5-16.2,6.4l-1.3,0.4c-5.7,1.9-11.5,3.6-17.5,4.5c-4.6,0.6-9.3,0.6-14,0.5l-1.7,0c-5.5,0-10.9-0.1-16.3-1
				c-5-1-9.7-2.7-14.4-4.5c-6.1-2.4-11.9-5.1-17.5-8.5c-2.2-1.4-4.3-2.9-6.4-4.4l-1.2-0.8c-6.3-4.6-12.2-9.8-17.8-15.2
				c-0.3-0.2-0.5-0.5-0.8-0.8C-62.4,23.7-70,15.7-76.6,6.7c-0.6-0.9-1.3-1.7-1.9-2.6c-0.2-0.3-0.4-0.5-0.6-0.8
				c-8-10.9-14.7-22.5-21.4-34.2l1-4c5.3-2.7,10.6-5.4,16-8l1.1-0.5c14.5-7.1,29.8-12.4,45.3-16.9c5.2-1.4,10.4-2.6,15.6-3.6
				l1.7-0.3C-7.4-66.8,6.2-67,18.8-65.7"/>
		</g>
		<g transform="matrix(0.2413410218837826 0 0 0.2413410218837826 -65.19427918767104 -75.50052899177064)">
			<path class="st0" d="M-2.5-68.9l1.3,0.1c8.5,0.9,16.9,2.1,25.1,4.5c5.3,1.6,10.5,3.8,15.5,6.3c4.3,2.2,8.5,4.6,12.4,7.4
				c4,3.1,7.7,6.4,11.3,10l1,1c2.6,2.6,4.9,5.4,7,8.4c4.9,7.3,9,15.1,12.7,23.1c3.3,7.3,6.1,14.9,8.1,22.6c0.6,2.3,0.9,4.7,1.1,7.1
				c0.1,1.3,0.1,2.6,0.1,3.9c-4.2-1.3-8.2-2.9-12.2-4.9c-0.9-0.4-1.8-0.9-2.7-1.3l-2.9-1.4C43.9,2.8,11.9-10.8-21-21.6l-3,1
				c9.1,8.8,18.9,16.5,29,24l2.3,1.7c16,11.9,32.1,23.5,48.4,35c3.9,2.7,7.8,5.5,11.6,8.2l5.5,3.9l1.8,1.3l1.3,0.9l1,3
				c-8.9,3.7-17.8,7.2-27.2,9.4l-1,0.2c-2.2,0.5-4.5,1-6.8,1.4l-1.7,0.3c-6.7,1.1-13.5,1-20.3,0.9c-4.4-0.1-8.8-0.3-13.2-1
				c-5.3-1-10.4-2.6-15.5-4.5c-4.5-1.7-8.8-3.8-12.9-6.3c-6.3-3.8-12.3-8.3-17.8-13.1c-4.5-4-8.6-8.3-12.3-13
				c-7.4-9.4-13.5-19.6-19.2-30.2c-5.2-9.7-9.7-19.7-13.7-30l-0.6-1.6c-2.2-5.9-4.2-11.8-6.1-17.7l-0.5-1.7l-0.5-1.6l-0.4-1.4
				l-0.3-1.3c0-1,0-2,0-3c7.5-2.9,15-5.1,22.8-6.7c11.7-2.3,23.3-4.2,35.2-5.3l1.8-0.2c1.7-0.2,3.4-0.3,5.1-0.5l1.4-0.1
				C-18.6-69.9-10.5-69.7-2.5-68.9"/>
		</g>
		<g transform="matrix(0.2413410218837826 0 0 0.2413410218837826 63.764359345098775 -83.60975697614737)">
			<path class="st0" d="M29.7-90h2c8.7,16.9,16.6,33.8,22.2,52c2.6,8.4,4.5,17,5.6,25.7c0.9,7.8,1.4,15.6,1.1,23.4
				c-0.3,4.3-0.9,8.7-1.9,12.9c-1.4,5.7-3.3,11.2-5.7,16.5c-1.5,3.3-3.3,6.5-5.3,9.5c-2.8,3.9-5.8,7.5-9,11l-1,1.1
				c-2.6,2.9-5.5,5.6-8.5,8.1C20.9,76.6,12,82.1,2.7,87L1,87.9l-1.6,0.8l-1.4,0.7L-3.3,90h-2c-0.2-2.3-0.2-4.7,0-7
				c0.5-3.2,1.2-6.3,1.9-9.4c0.4-1.6,0.7-3.2,1-4.8c0.5-2.3,1-4.5,1.5-6.8c1.3-5.9,2.6-11.8,3.8-17.7l0.4-1.8
				c4-18.8,7.3-37.6,8.9-56.8l0.1-1.1c0.1-1,0.2-2,0.2-3c0.2-1.7,0.2-1.7,0.7-3.4l0.5-1.3h-3l-0.3,1.1c-1.2,3.9-2.8,7.4-4.7,11
				C4.8-9.2,3.9-7.4,3-5.6L2.4-4.5c-9.4,18.8-17.7,38-25.8,57.3c-0.9,2.1-1.8,4.2-2.7,6.3c-3.1,7.3-6.2,14.6-9.3,21.9h-4
				c-5.3-8.5-10.5-17-14.3-26.2c-1.3-3.3-2.4-6.7-3.5-10.1l-0.3-1c-1-3.3-1.9-6.6-2.5-9.9c-0.9-7.6-0.9-15.3-0.6-22.9
				c0.2-3.1,0.5-6.1,1.2-9.2c1.1-4.3,2.5-8.6,4.3-12.7c2.5-5.6,5.3-10.9,8.7-16c4.4-6.4,9.6-12.3,15-17.9c1.3-1.3,2.5-2.5,3.8-3.8
				c1.1-1.1,2.2-2.3,3.3-3.5c4.8-5.1,9.9-9.5,15.5-13.7c7.8-5.8,16-11,24.4-16l1-0.6c2.3-1.4,4.6-2.7,6.9-4l0.9-0.5
				c0.8-0.5,1.7-1,2.5-1.4l1.4-0.8L29.7-90z"/>
		</g>
		<g transform="matrix(0.2413410218837826 0 0 0.2413410218837826 -74.84515069666932 14.283571241244807)">
			<path class="st0" d="M43.2-61c7.1,1.3,14,3.1,20.8,5.4c-2.5,2.8-5.2,5.3-8.2,7.6c-2.1,1.6-4.3,3.2-6.4,4.9l-2.8,2.1
				c-5.7,4.3-11.4,8.5-17.2,12.8l-1.2,0.9L27-26.6c-7.3,5.4-14.4,11-21.4,16.8C3.4-8,1.2-6.2-1-4.5C-5.2-1.2-9.3,2.3-13.4,5.8
				c-0.6,0.5-1.2,1-1.9,1.6c-2.5,2.1-4.9,4.1-7,6.5c-0.9,1.2-1.8,2.3-2.7,3.5c29.1-9.6,56.8-22.7,84.3-36c0.7-0.3,1.4-0.7,2-1
				c2.9-1.4,5.9-2.9,8.8-4.3c1.5-0.7,2.9-1.4,4.4-2.2c0.3-0.1,0.3-0.1,1.6-0.8l1.5-0.7l1.3-0.6l1.1-0.4h2
				c-0.6,7.2-1.4,14.3-3.2,21.3c-1.9,7.1-4.4,13.9-7.5,20.5c-1.9,4-4,7.9-6.5,11.6c-2.1,3-4.4,5.8-6.8,8.5l-1,1.1
				c-2.1,2.5-4.5,4.8-7,6.9c-4.6,3.6-9.4,7-14.5,9.8c-3.1,1.6-6.3,3-9.5,4.2l-1.4,0.5c-6.1,2.2-12.4,3.8-18.8,5
				c-9.2,1.6-18.6,1.9-27.9,1.9c-14.2-0.1-28.2-1.7-42.2-4.1c-5.9-1.1-11.8-2.5-17.6-4.3c0.4-4.6,0.9-9.1,2.1-13.6
				c0.4-1.7,0.9-3.3,1.4-4.9l0.4-1.3c3.4-11.7,7.9-23.1,13.2-34.1c4.5-8.9,9.6-17.5,15.6-25.5c1.4-1.9,2.9-3.7,4.4-5.5l1.2-1.4
				c3.2-3.8,6.5-7.5,10.2-10.8c3.9-3.3,7.9-6.1,12.3-8.8c4-2.3,8.1-4.3,12.3-6c4.9-1.8,9.9-3.1,15-4C18-63.5,31.2-63,43.2-61"/>
		</g>
		<g transform="matrix(0.2413410218837826 0 0 0.2413410218837826 -44.633057684907726 -32.56613084772735)">
			<path class="st0" d="M-37.2-86.5c2,0.2,4,0.5,6,1c2.6,1,5,2.3,7.5,3.6l2.1,1.1c2.1,1.1,4.3,2.2,6.4,3.4l0.9,0.5
				c10.5,5.6,20.6,12,30,19.2c7.2,5.6,14,11.8,20.1,18.6c4.6,5.3,8.6,11,12.3,16.9c2.4,4,4.6,8.1,6.4,12.4C56.4-5,58.1-0.1,59.1,5
				c0.9,4.6,1.1,9.3,1.2,14c0,5.8-0.2,11.6-1.2,17.4c-1.3,7.3-3.5,14.4-6.1,21.3c-3,8-7,15.4-11.3,22.8c-1.1-1-2.1-1.9-3-3
				c-0.9-1.4-1.7-2.9-2.4-4.3l-0.7-1.3c-0.7-1.4-1.5-2.9-2.2-4.3l-1.6-3.1c-4.5-8.6-8.8-17.4-13.1-26.1C8.5,17.8-2.4-2.6-14.2-22.5
				v-2l-2,2c3.3,18.1,6.8,36.2,11.3,54.1l0.3,1.1c3.3,13.2,7,26.2,11,39.2c0.4,1.4,0.8,2.8,1.3,4.2C7.9,77,8.2,78,8.5,78.9L9,80.6
				l0.5,1.5l0.3,1.4c0,1,0,2,0,3c-1.7-0.2-3.3-0.5-5-1c-2.6-1.1-5.1-2.3-7.6-3.6l-1.1-0.5c-7.5-3.8-15.1-7.7-21.9-12.6
				c-2.6-2-5-4-7.5-6.2l-1.5-1.3c-3.7-3.3-7.4-6.8-10.5-10.7c-2.3-3-4.1-6.2-5.9-9.5c-2.2-4.4-4.1-9-5.6-13.8
				c-1.5-5.2-2.4-10.5-3.1-15.9c-0.6-6.1-0.7-12.2-0.4-18.3c0.3-3.3,0.6-6.6,1-9.9l0.2-1.5c1.4-11.2,3.9-22,7.2-32.8
				c3.3-10.5,7-21,12-30.8C-38.9-83.4-38-85-37.2-86.5"/>
		</g>
		<g transform="matrix(0.2413410218837826 0 0 0.2413410218837826 -92.4558482079825 -53.671801042629156)">
			<path class="st0" d="M-66.1-64.2c2.3-0.1,4.5-0.1,6.8-0.1l2.6,0c2.3,0,4.5,0,6.8,0c1.4,0,2.8,0,4.2,0c11.8,0,23.4,0.2,35,2.2
				c1.5,0.3,3.1,0.6,4.6,0.9c1.1,0.2,2.3,0.5,3.4,0.7c7,1.3,13.8,3.1,20.5,5.6c6.2,2.4,12.4,5.3,18.1,8.7c3.5,2.1,6.8,4.5,9.9,7.1
				c3.1,2.7,5.9,5.6,8.5,8.8c2.3,3,4.4,6.1,6.2,9.4c3.1,5.9,5.4,12.3,7.5,18.6C69.6,2.9,71,8.4,72,14l0.2,1.1
				c0.6,2.9,0.8,5.8,0.8,8.7c0.1,4.4,0,8.8,0,13.2c-2.7-1.3-5.2-2.7-7.7-4.5l-1.3-1l-1.4-1c-1.5-1.1-3-2.1-4.6-3.2
				C50.5,22.1,43.1,17,35.5,12c-1.5-1-3.1-2-4.6-3C17.8,0.2,4.6-8.3-9.1-16c-2-1.1-4-2.2-6-3.4l-0.9-0.5L-18-21l-2,1
				c5.9,7,11.8,14,18,20.7c2.5,2.7,5,5.4,7.4,8.2c3.3,3.8,6.7,7.5,10.1,11.2l0.9,1c4.5,4.8,9.2,9.6,13.9,14.3c2.6,2.6,5.3,5.3,8,7.9
				c5.1,5.1,10,10.2,14.7,15.7v2c-6.5,1.5-13.1,2.8-19.7,3.2c-7.5,0.4-15.1,0.4-22.5-0.5c-4.6-0.7-9-1.8-13.5-3.2
				c-5.4-1.8-10.8-4-15.9-6.7c-4-2.3-7.7-5-11.2-8c-3.9-3.3-7.3-7-10.5-10.9C-44.8,29.2-48.6,23.3-52,17c-4-7.7-7.3-15.7-10-24
				c-4.5-14.3-7.8-28.9-9.9-43.8c-0.5-3.8-0.8-7.5-1.2-11.3c1.1-0.6,2.2-1.1,3.4-1.5C-68-64-68-64-66.1-64.2"/>
		</g>
		<g transform="matrix(0.2413410218837826 0 0 0.2413410218837826 63.07846197792807 22.109986717677277)">
			<path class="st0" d="M-30.5-64.3l1.4,0c6.8,0,13.4,0.5,20.1,1.6c6.5,1.2,12.8,2.8,19,5.1c3.5,1.4,6.9,3.2,10.2,5.1
				c4.4,2.8,8.6,6,12.6,9.6c3,2.7,5.7,5.6,8.2,8.8c2.4,3.2,4.5,6.6,6.6,10l0.6,0.9c3.4,5.6,6.5,11.4,9,17.5
				c4.2,10.9,7.7,22.1,10.1,33.6c1.8,9.2,3.2,18.8,3.4,28.2c0,2.3,0,4.6,0,6.8l-1,1c-39.3,0.6-39.3,0.6-50.8-1.2
				c-3.1-0.5-6.2-1.1-9.3-1.8l-1.2-0.3c-9.4-2.1-18.6-4.7-27.5-8.3c-5.3-2.3-10.4-5.1-15.3-8.3c-3.9-2.7-7.4-5.7-10.8-8.9
				c-0.7-0.7-1.5-1.5-2.2-2.2l-1-1c-2.8-2.9-5.3-5.9-7.5-9.1c-2.2-3.3-4-6.8-5.6-10.5c-2-4.7-3.8-9.5-5.1-14.5
				c-1.2-5.2-2-10.6-2.7-15.9l-0.4-2.7c-0.8-5.8-0.7-11.5-0.6-17.3h4l0.7,0.5C-48-23.9-30.1-10.3-11.4,2.3c1,0.7,1.9,1.3,2.9,2
				c6.7,4.5,13.4,9,20.3,13.2l1.6,1l1.5,0.9l1.3,0.8c1.3,0.7,1.3,0.7,3,1.3l1.3,0.4c-2.2-3.9-4.7-7.4-7.4-10.9l-0.6-0.8
				C4.7,0.2-3.7-9.3-12.3-18.6c-1.9-2.1-3.8-4.2-5.6-6.3c-3.8-4.4-7.8-8.6-11.7-12.9l-0.8-0.8l-0.8-0.8c-1.8-1.9-3.6-3.9-5.4-5.8
				c-9.2-10.1-9.2-10.1-14-14.7v-3C-43.8-63.8-37.2-64.3-30.5-64.3"/>
		</g>
		<g transform="matrix(0.2413410218837826 0 0 0.2413410218837826 -39.6033064999059 -101.91458330410391)">
			<path class="st0" d="M-59-68.2c11.8,0.5,23.4,2.5,35,5c9.3,2.1,18.5,4.9,27.4,8.5c7.8,3.3,15.4,7.1,22.6,11.5
				c3.6,2.4,6.8,5.1,10,8l1.2,1c3.2,2.9,6.2,5.8,8.8,9.2c2.3,3.1,4.3,6.3,6,9.7c2.3,5,4.2,10.2,5.7,15.5c0.5,2.2,0.9,4.3,1.3,6.5
				l0.2,1c1.3,8,1.1,16.4,1,24.5c-0.1,4.6-0.8,9-1.7,13.5c-0.1,0.7-0.3,1.3-0.4,2h-3l-2.1-2.4c-0.6-0.7-1.3-1.4-1.9-2.2
				c-1.6-1.8-3.2-3.6-4.7-5.5c-4.6-5.4-4.6-5.4-6.9-7.4L37.6,29c-3.9-3.4-7.6-7-11.3-10.7l-0.9-0.9c-2.5-2.5-4.9-5-7.4-7.5
				C3.9-4.4,3.9-4.4-2.2-9.5c-0.8-0.7-1.7-1.4-2.5-2.1c-1.5-1.3-3.1-2.6-4.6-3.9l-0.8-0.7c-0.8-0.6-1.5-1.3-2.3-1.9l-1.3-1.1
				l-1.3-0.9c-1.7-0.6-1.7-0.6-3-1c3.8,7.8,7.8,15.3,12.3,22.6l0.9,1.4c9,14.6,18.5,28.9,28,43.2c3,4.5,5.9,8.9,8.8,13.5l1.2,1.9
				c0.9,1.5,1.9,2.9,2.8,4.4l-1,2c-7.1,0.3-14.4,0.6-21.5-0.3c-6-0.8-11.9-2.2-17.6-4.1c-4.5-1.5-8.9-3.4-13.1-5.6
				c-3.5-1.9-6.7-4.2-9.8-6.6c-1.4-1.1-2.7-2.2-4-3.4l-1.2-1c-2.5-2.2-4.7-4.4-6.8-7c-2.7-3.5-4.9-7.1-7-11c-2.7-5.2-5.1-10.5-7-16
				c-2.2-6.9-3.7-13.9-5-21l-0.2-1.1c-1.3-6.9-1.8-13.6-1.9-20.6c-0.1-3.9-0.1-7.8-0.1-11.7l0-1.1C-60.2-51.2-60-59.6-59-68.2"/>
		</g>
		<g transform="matrix(0.2413410218837826 0 0 0.2413410218837826 -7.401689094953575 -110.15426264266443)">
			<path class="st0" d="M33.5-77l3,1c5.9,13.8,10.8,27.6,14.3,42.2C52.7-25.7,54-17.4,54.4-9c0,1,0.1,2,0.1,2.9l0.1,1.3
				c0.3,5.4-0.2,10.7-0.8,16.1c-0.6,4.2-1.3,8.3-2.5,12.3c-1.5,4.7-3.5,9.3-5.8,13.8c-1.6,2.9-3.3,5.7-5.3,8.3
				c-3.7,4.6-7.8,8.7-12.2,12.6c-3.9,3.3-8,6.2-12.4,8.8c-6.3,3.6-12.7,7-19.5,9.5L-5.5,77c-1.3,0-2.7,0-4,0
				c2.1-8.7,4.3-17.4,6.8-26l0.4-1.3l1.5-5.3C3.9,28.7,8.4,13.1,11.5-3l0.2-1.2c1-4.9,1.9-9.9,2.8-14.8c-1.3,1.2-2.6,2.4-3.7,3.9
				c-0.7,1-1.3,2-1.9,3c-1,1.7-2.1,3.3-3.1,5L5-5.8C-9.8,18.4-22.6,43.7-35.5,69h-3c-7.8-13.7-7.8-13.7-10.3-20.2
				c-2.1-5.9-3.7-11.9-4.8-18c-0.7-4.6-1.3-9.3-1.2-14c0.2-4.3,0.7-8.5,1.5-12.7c0.7-3.2,1.8-6.1,3-9.1c0.9-2,1.8-4,2.8-5.9l0.7-1.4
				c1.8-3.8,3.8-7.5,6.3-11c2.5-3.4,5.2-6.5,8-9.6l1.2-1.3c4.3-4.8,9-9.1,14-13.1c10.5-8.1,21.6-15.1,33.3-21.3
				C21.8-71.7,27.6-74.4,33.5-77"/>
		</g>
		<g transform="matrix(0.2413410218837826 0 0 0.2413410218837826 -103.56473230083931 8.340660676815709)">
			<path class="st0" d="M7.7-39.2l1.3,0c1.4,0,2.9,0,4.3,0l1.5,0c3.8,0,7.7,0,11.5,0.5c4.3,0.7,8.4,2,12.5,3.3
				c1.1,0.4,2.2,0.9,3.3,1.5c-0.6,1.4-1.2,2.7-2,4c-0.8,0.7-0.8,0.7-1.6,1.3c-0.6,0.4-1.3,0.8-1.9,1.2l-1.1,0.7
				c-0.8,0.5-1.5,1-2.3,1.4c-2.1,1.3-4.1,2.6-6.1,4l-1.3,0.8c-4.4,2.9-8.6,5.9-12.8,8.9l-1.1,0.8L7.5-7.5C4.6-5.4,1.8-3.4-1.1-1.4
				l-3.8,2.7C-5.7,1.9-6.5,2.5-7.3,3c-1.1,0.8-2.2,1.6-3.3,2.4l-1,0.7C-12.4,6.7-13.2,7.4-14,8c-0.6,1.1-0.6,1.1-1,2
				C1.8,4.5,18.2-1.8,34.6-8.5l3.6-1.5c1.5-0.6,2.9-1.2,4.4-1.8c5.4-2.2,5.4-2.2,7.9-2.9L52-15c-0.2,3-0.5,6-1,9
				c-1,4.1-2.4,8.1-4,12c-2.2,4.9-4.8,9.7-7.8,14.2c-1.3,1.8-2.7,3.4-4.2,5c-2.2,2.1-4.6,3.8-7.2,5.5c-2.4,1.5-4.8,2.8-7.4,3.9
				c-4.6,1.7-9.2,3.2-14,4.1c-2.4,0.4-4.7,0.4-7.1,0.5l-1.6,0c-1.7,0-3.5,0-5.2,0l-1.8,0c-6.2,0-12.4-0.1-18.5-1.1
				c-1.7-0.3-3.5-0.7-5.2-1l-1.2-0.3c-5.7-1.2-11.2-3-16.7-4.9l-1-5c4.1-11.7,8.9-22.8,14.9-33.6c2.5-4.3,5.3-8.4,8.4-12.3
				c2.8-3.3,5.7-6.4,9-9.2c2.4-1.9,4.8-3.7,7.5-5.2c3.2-1.8,6.6-3.1,10.1-4.3C1.2-38.7,4.2-39.2,7.7-39.2"/>
		</g>
		<g transform="matrix(0.2413410218837826 0 0 0.2413410218837826 107.12610047421371 -32.4479961000585)">
			<path class="st0" d="M6.6-35.3c0.6,0,1.1,0,1.7,0c6.2,0,12.4,0.1,18.6,1.2c7.5,1.5,14.9,3.7,22.1,6.1c-0.2,2.4-0.5,4.7-1,7
				c-0.8,2.7-2,5.2-3.2,7.8l-1,2.1C42.9-9.1,42-7,41-5l-0.7,1.6c-1.9,3.9-4,7.6-6.5,11.1c-3.9,5.4-8,10.8-12.8,15.4
				c-1.6,1.4-3.2,2.7-5,3.8c-3.8,2.3-7.8,4.3-12,6c-1.8,0.7-3.7,1.2-5.6,1.6c-3.5,0.5-7,0.7-10.5,0.7c-4.9-0.2-9.7-1-14.6-2
				c-4.2-0.9-8.1-2.1-12.1-3.7L-40,29l1-3l0.7-0.4c12-7,24-14,35.4-21.9C-1.9,3-1,2.3,0,1.6c1.7-1.2,3.3-2.3,5-3.5
				c0.6-0.4,1.2-0.9,1.9-1.3C7.7-3.7,8.5-4.3,9.4-5c0.5-0.3,1-0.7,1.5-1L12-7c0.4-0.7,0.7-1.3,1-2C8.2-7.4,3.4-5.7-1.4-4.1l-1.1,0.4
				C-14.1,0.2-25.6,4.4-37,8.9c-1.5,0.6-2.9,1.1-4.4,1.7c-2.5,1-5,1.8-7.6,2.4c0.1-2.5,0.3-5,0.7-7.5c0.7-3.3,1.9-6.4,3.1-9.5
				c1.6-3.7,3.3-7.3,5.5-10.8c1.7-2.7,3.6-5.1,5.8-7.5c1.8-1.8,3.7-3.4,5.7-4.9c2.3-1.5,4.8-2.6,7.3-3.7c3.6-1.5,7.4-2.6,11.2-3.5
				C-4.4-35.4,1.1-35.3,6.6-35.3"/>
		</g>
		<g transform="matrix(0.2413410218837826 0 0 0.2413410218837826 -64.93625100735925 -100.91021971220778)">
			<path class="st0" d="M-16.4-28.6c1.6,0,3.2,0,4.9,0c3.2,0,6.3,0,9.5,0.4c4.4,0.8,8.6,2.2,12.9,3.7c3.1,1.2,6,2.7,8.8,4.4
				c1.3,0.9,2.6,1.9,3.8,3c1.8,1.8,3.4,3.7,4.8,5.7c1.2,1.8,2.3,3.7,3.1,5.7c0.6,1.5,1.1,2.9,1.6,4.4l0.3,1.1
				C34,2,34.6,4.3,34.9,6.7c0.2,2.3,0.1,4.7,0,7c-1.4-0.3-2.7-0.6-4-1c-1.6-0.7-3.1-1.6-4.6-2.4C25,9.5,23.6,8.8,22.3,8
				C14.5,3.6,6.6-0.6-1.4-4.6l-1.2-0.6c-2.1-1.1-4.3-2.1-6.4-3.2c0.9,1.7,1.9,3.4,3,5c1.4,1.5,2.9,2.9,4.5,4.2l1.3,1.2
				C6.3,7.8,13.1,13.3,20,18.7l1.1,0.9l1,0.8l0.9,0.7c0.9,0.6,1.9,1.1,2.9,1.6l-1,3c-2,0.8-4,1.4-6,2c-2.5,0.4-4.9,0.6-7.4,0.8
				l-1,0.1c-2.7,0.2-5.3,0.3-8,0.1c-1.1-0.1-1.1-0.1-3-0.5c-2.8-0.9-5.5-2.2-8.2-3.6c-2.2-1.3-4.3-2.6-6.3-4.2
				c-1.2-1-2.3-2.2-3.4-3.4c-2.4-3-4.5-6.3-6.4-9.7c-2.2-4-4.1-8-5.6-12.3c-1.8-5.3-3.2-10.7-4.1-16.2c-0.3-1.7-0.5-3.4-0.7-5.1
				C-28.8-28.3-22.9-28.7-16.4-28.6"/>
		</g>
		<g transform="matrix(0.2413410218837826 0 0 0.2413410218837826 87.90954082948312 -76.72975179639606)">
			<path class="st0" d="M22.1-29.6l2.5,0c2,0,4,0,6,0l1,1c-0.1,5.7-0.4,11.4-1.3,17c-1,4.8-2.3,9.5-4,14c-1.6,4-3.5,7.9-5.7,11.6
				c-1,1.6-2.1,3.2-3.4,4.6c-1.1,1.1-2.3,2.2-3.5,3.1c-2.3,1.6-4.6,2.9-7.1,4.1c-2.5,1.1-4.9,2-7.6,2.6c-2.6,0.6-5.3,0.9-8,1
				c-3.5,0.1-6.9,0.1-10.4-0.1l-2-2l1.1-1.2C-13.3,19-6.6,11.8-0.3,3.9c2.2-2.7,4.5-5.4,6.9-8l0.8-0.9L8-5.7
				c0.6-0.8,0.6-0.8,1.2-1.9l0.4-0.9C1.3-3.4-6.6,2-14.4,7.8l-1.2,0.9c-4.3,3.2-8.6,6.4-12.7,9.8h-3c-0.3-4.7-0.4-9.3,0-14
				c0.5-2.9,1.2-5.7,2.1-8.4c0.8-2,1.6-4,2.6-5.9c1-1.6,2.1-3.2,3.3-4.6c1.7-1.8,3.5-3.5,5.5-5c2.2-1.6,4.6-3.1,7-4.3
				c3.4-1.5,6.9-2.6,10.5-3.6c3.9-1,8-1.7,12-2.1C15.1-29.7,18.6-29.6,22.1-29.6"/>
		</g>
		<g transform="matrix(0.2413410218837826 0 0 0.2413410218837826 16.915257953740223 -120.0843496365091)">
			<path class="st0" d="M21.6-33.1c1.4,0,2.8,0.1,4.2,0.3c0.4,1,0.7,2,1,3c0.1,1.4,0.1,1.4,0.2,2.9l0,1.7l0,1.8l0,1.9
				c0,1.3,0,2.7,0,4c0,1.3,0,2.7,0.1,4c0.1,4.6,0.2,9.1-0.4,13.6c-0.8,4-2,7.8-3.4,11.6c-0.9,2.1-2,4.2-3.1,6.2
				c-0.8,1.1-1.6,2.1-2.4,3.1c-1.5,1.5-3.2,2.7-4.9,4c-3,2-6.2,3.7-9.5,5.1C1.3,31-1,31.7-3.2,32.1c-3,0.5-6,0.8-9,1
				c0.5-2.1,1.2-4.1,2-6c1.5-2.9,3.2-5.8,4.9-8.6C-0.3,9.9,4.5,1.2,8.8-7.9C-0.9-0.1-9,9.4-17.1,18.6c-1.8,2.1-3.5,4.3-5.1,6.5h-2
				c-0.7-2-1.4-4-2-6c-0.7-3.8-0.9-7.6-1-11.4c0-1.9,0.1-3.7,0.3-5.6c0.3-1.6,0.7-3.2,1.2-4.8c0.8-2.2,1.8-4.3,3-6.3
				c1.3-2.1,2.8-4.1,4.4-6c1.7-1.8,3.5-3.5,5.4-5c3-2.2,6.1-4,9.4-5.6c4.7-2.3,9.6-4.2,14.7-5.7C14.6-32.3,18-33,21.6-33.1"/>
		</g>
		<g transform="matrix(0.2413410218837826 0 0 0.2413410218837826 54.1830279156611 -106.41286342883654)">
			<path class="st0" d="M14.4-31.5l4,1c1.6,4.5,2.9,9.1,3.8,13.8c0.8,4.9,0.7,9.8,0.7,14.7c-0.1,3.2-0.3,6.3-0.8,9.4
				c-0.4,2-1.1,3.9-1.8,5.8c-0.9,1.9-2,3.6-3.2,5.4c-0.9,1.2-1.9,2.4-3,3.5c-1.7,1.6-3.6,3-5.5,4.2c-1.7,1-3.5,2-5.4,2.8
				c-2.2,0.9-4.5,1.6-6.8,2.3c-1,0.2-1,0.2-2.7,0.2l-1.4,0c1.6-5,3.3-10,5.2-14.9l0.6-1.5c0.8-2.1,1.6-4.2,2.4-6.3
				C1.2,7.1,1.8,5.6,2.4,4L3,2.6c0.7-1.9,1.3-3.8,1.8-5.8C5-4.6,5.2-6.1,5.4-7.5c-7.1,10.9-14.1,21.9-21,33h-2
				c-0.7-1.6-1.3-3.1-1.9-4.7l-0.6-1.3c-0.7-1.7-1.4-3.5-1.9-5.3c-0.5-2.3-0.8-4.6-0.9-6.9c0-2,0-3.9,0.2-5.8c0.3-2,0.9-3.8,1.5-5.7
				c0.6-1.5,1.3-3,2.1-4.4c1.6-2.5,3.4-4.7,5.4-6.9l0.7-0.8c1.2-1.3,2.5-2.5,3.9-3.6c4.8-3.4,10.3-5.8,15.6-8.3
				C9.2-29.4,11.7-30.5,14.4-31.5"/>
		</g>
		<g transform="matrix(0.2413410218837826 0 0 0.2413410218837826 -93.05733765965941 -77.20334775857803)">
			<path class="st0" d="M-23.5-26.5c2.3-0.1,4.7-0.1,7,0c2.7,0.4,5.4,0.9,8.1,1.6l1.1,0.3c3.3,0.8,6.6,1.7,9.7,2.9
				c3.4,1.5,6.6,3.3,9.7,5.3c1.9,1.3,3.7,2.7,5.4,4.3c1.1,1.1,2,2.4,2.9,3.6l0.7,0.9c0.7,0.9,1.2,1.9,1.8,2.9c0.5,1.1,1,2.3,1.3,3.6
				c0.6,3.3,0.6,6.6,0.5,9.9c0,3.2-0.1,6.5-0.3,9.7l-4-1l-1-1.3c-2.4-2.9-4.8-5.7-7.7-8.2c-1-0.8-2-1.7-3-2.5C7,3.9,5.3,2.4,3.6,0.8
				L2.9,0.1C1.7-1,0.4-2.1-0.8-3.3l-1.4-1.2l-1.2-1.1l-1.2-0.9c-1.7-0.6-1.7-0.6-3-1c7.4,10.9,14.8,21.7,23,32l-1,2
				c-3.7,0.2-7.3,0.3-11,0c-2.2-0.3-4.3-0.8-6.4-1.5c-1.7-0.6-3.2-1.3-4.7-2.1c-2.1-1.4-4.2-2.9-6.1-4.6c-1.1-1-2.1-2-3-3
				c-1.5-2.1-2.8-4.4-3.9-6.7c-0.7-1.6-1.3-3.3-1.9-5c-1-4.3-1.6-8.6-2-13c-0.2-4-0.3-8,0.1-12.1C-24.2-23.3-23.9-24.9-23.5-26.5"/>
		</g>
		<g transform="matrix(0.2413410218837826 0 0 0.2413410218837826 -25.477662344932252 -118.96621668212153)">
			<path class="st0" d="M-8.6-32.5l5,1C9.8-19.6,9.8-19.6,14.1-14.4c1.2,1.5,2.2,3.2,3.2,4.9c0.8,1.6,1.5,3.3,2.2,5l0.4,1
				c0.6,1.6,1,3.2,1.4,4.9c0.3,2,0.4,3.9,0.4,5.9c-0.1,1.9-0.3,3.7-0.7,5.6c-0.6,2.2-1.6,4.3-2.6,6.4c-1.5,3.1-3.2,6.2-4.9,9.2h-3
				l-0.3-0.9c-1-3.2-2-6.5-3-9.7c-0.4-1.2-0.7-2.4-1.1-3.6C2.3,1.9,2.3,1.9,0-3.9l-0.5-1.6c-0.1-1.7-0.1-1.7,0-3h-2l0.2,1.3
				C-1.9-3-1.5,1.2-1,5.3c0.2,2.1,0.5,4.3,0.7,6.4c0.2,2.1,0.5,4.1,0.7,6.2l0.3,2.4c0.5,4.1,0.9,8.1,0.7,12.2
				c-2.2-0.8-4.3-1.6-6.4-2.8c-2.6-1.6-5-3.5-7.3-5.5c-1.5-1.5-3-3-4.3-4.7c-0.9-1.4-1.7-2.8-2.4-4.3c-0.8-1.9-1.4-3.9-1.9-5.9
				c-0.4-2-0.7-4.1-0.7-6.2c0-3.3,0.2-6.5,0.7-9.7c0.4-2,0.9-4,1.7-5.9C-16.2-19.4-12.5-26.1-8.6-32.5"/>
		</g>
	</g>
</g>
</svg>
